# xmcd
#
# Track frame offsets: 
#        150
#        18540
#        34217
#        57030
#        78522
#        104165
#        127325
#        157917
#        182085
#        203670
#
# Disc length: 2934 seconds
#
# Revision: 3
# Processed by: cddbd v1.5.2PL0 Copyright (c) Steve Scherf et al.
# Submitted via: ExactAudioCopy v1.0b2
#
DISCID=870b740a
DTITLE=Joe Louis Walker - Preacher and the President
DYEAR=1900
DGENRE=Blues
TTITLE0=Preacher and the President
TTITLE1=Yveline
TTITLE2=Repay My Love
TTITLE3=I'm Not Messin' Around
TTITLE4=Y&T
TTITLE5=Lyin' in the Name of Love
TTITLE6=Pride of a Fool
TTITLE7=Uhh!
TTITLE8=Tell the Truth
TTITLE9=My Real Fantasy
EXTD=
EXTT0=
EXTT1=
EXTT2=
EXTT3=
EXTT4=
EXTT5=
EXTT6=
EXTT7=
EXTT8=
EXTT9=
PLAYORDER=
